# xmcd
#
# Track frame offsets:
#	151
#	17608
#	31763
#	46420
#	66219
#	87624
#	106619
#	125737
#	144422
#	166580
#	186010
#	205997
#	222895
#	242816
#	260089
#	277697
#	297245
#	315325
#
# Disc length: 4459 seconds
#
# Revision: 1
# Processed by: cddbd v1.4PL0 Copyright (c) Steve Scherf et al.
# Submitted via: EasyCDDAExtractor 6.0.0.1
#
DISCID=fb116912
DTITLE=Tanya Tsai - Jupiter
DYEAR=2003
DGENRE=AlternRock
TTITLE0=Drops Of Jupiter
TTITLE1=Tell Me
TTITLE2=Two Of Us
TTITLE3=All I Needed
TTITLE4=Yellow
TTITLE5=Sanctuary Of Love
TTITLE6=Just Like The Movies
TTITLE7=Day And Night
TTITLE8=Lost
TTITLE9=On This Earth
TTITLE10=Hello God
TTITLE11=It's Your Chance
TTITLE12=My Color TV Set
TTITLE13=TRue Love
TTITLE14=???
TTITLE15=???
TTITLE16=???
TTITLE17=???
EXTD=
EXTT0=
EXTT1=
EXTT2=
EXTT3=
EXTT4=
EXTT5=
EXTT6=
EXTT7=
EXTT8=
EXTT9=
EXTT10=
EXTT11=
EXTT12=
EXTT13=
EXTT14=
EXTT15=
EXTT16=
EXTT17=
PLAYORDER=
